<svg id="SvgjsSvg1075" xmlns="http://www.w3.org/2000/svg" version="1.1" xmlns:xlink="http://www.w3.org/1999/xlink" xmlns:svgjs="http://svgjs.com/svgjs" width="20" height="18" viewBox="0 0 20 18"><title>Shape 1</title><desc>Created with Avocode.</desc><defs id="SvgjsDefs1076"><filter id="SvgjsFilter1080" width="200%" height="200%" x="-50%" y="-50%"><feGaussianBlur id="SvgjsFeGaussianBlur1081" stdDeviation="2 " result="SvgjsFeGaussianBlur1081Out" in="SourceGraphic"></feGaussianBlur></filter><mask id="SvgjsMask1082"><path id="SvgjsPath1078" d="M322.417 467L325.575 472.657L331.99899999999997 473.876L327.527 478.59L328.339 485L322.417 482.257L316.49399999999997 485L317.306 478.59L312.835 473.876L319.258 472.657L322.417 467 " fill="#ffffff"></path></mask></defs><path id="SvgjsPath1077" d="M322.417 467L325.575 472.657L331.99899999999997 473.876L327.527 478.59L328.339 485L322.417 482.257L316.49399999999997 485L317.306 478.59L312.835 473.876L319.258 472.657L322.417 467 " fill="#f195be" fill-opacity="1" transform="matrix(1,0,0,1,-312,-467)"></path><path id="SvgjsPath1079" d="M308 491L308 461L336 461L336 491ZM319.258 474.657L312.835 475.876L317.306 480.59L316.49399999999997 487L322.417 484.257L328.339 487L327.527 480.59L331.99899999999997 475.876L325.575 474.657L322.417 469Z " fill="#000000" fill-opacity="0.66" stroke-opacity="0.66" stroke-width="0" stroke="#000000" filter="url(#SvgjsFilter1080)" mask="url(&quot;#SvgjsMask1082&quot;)" transform="matrix(1,0,0,1,-312,-467)"></path></svg>