<svg id="SvgjsSvg1066" xmlns="http://www.w3.org/2000/svg" version="1.1" xmlns:xlink="http://www.w3.org/1999/xlink" xmlns:svgjs="http://svgjs.com/svgjs" width="28" height="26" viewBox="0 0 28 26"><title>Shape 1</title><desc>Created with Avocode.</desc><defs id="SvgjsDefs1067"><filter id="SvgjsFilter1069" width="200%" height="200%" x="-50%" y="-50%"><feMorphology id="SvgjsFeMorphology1070" operator="dilate" radius="0" result="SvgjsFeMorphology1070Out" in="SourceGraphic"></feMorphology><feOffset id="SvgjsFeOffset1071" dx="0" dy="2" result="SvgjsFeOffset1071Out" in="SvgjsFeMorphology1070Out"></feOffset><feGaussianBlur id="SvgjsFeGaussianBlur1072" stdDeviation="2 " result="SvgjsFeGaussianBlur1072Out" in="SvgjsFeOffset1071Out"></feGaussianBlur><feComposite id="SvgjsFeComposite1073" in="SvgjsFeGaussianBlur1072Out" in2="SourceAlpha" operator="out" result="SvgjsFeComposite1073Out"></feComposite></filter></defs><path id="SvgjsPath1068" d="M290.583 467L293.742 472.657L300.165 473.876L295.694 478.59L296.505 485L290.58299999999997 482.257L284.66099999999994 485L285.47299999999996 478.59L281.001 473.876L287.42499999999995 472.657L290.58299999999997 467 " fill="#000000" fill-opacity="0.44" filter="url(#SvgjsFilter1069)" transform="matrix(1,0,0,1,-277,-465)"></path><path id="SvgjsPath1074" d="M290.583 467L293.742 472.657L300.165 473.876L295.694 478.59L296.505 485L290.58299999999997 482.257L284.66099999999994 485L285.47299999999996 478.59L281.001 473.876L287.42499999999995 472.657L290.58299999999997 467 " fill="#54c5ff" fill-opacity="1" transform="matrix(1,0,0,1,-277,-465)"></path></svg>