<svg xmlns="http://www.w3.org/2000/svg" width="20" height="18" viewBox="0 0 20 18"><title>Shape 1</title><defs><filter id="a" width="200%" height="200%" x="-50%" y="-50%"><feGaussianBlur stdDeviation="2" result="SvgjsFeGaussianBlur1081Out" in="SourceGraphic"/></filter><mask id="b"><path d="M322.417 467l3.158 5.657 6.424 1.219-4.472 4.714.812 6.41-5.922-2.743-5.923 2.743.812-6.41-4.471-4.714 6.423-1.219 3.159-5.657" fill="#fff"/></mask></defs><path d="M10.417 0l3.158 5.657 6.424 1.219-4.472 4.714.812 6.41-5.922-2.743L4.494 18l.812-6.41L.835 6.876l6.423-1.219L10.417 0" fill="#f195be"/><path d="M308 491v-30h28v30zm11.258-16.343l-6.423 1.219 4.471 4.714-.812 6.41 5.923-2.743 5.922 2.743-.812-6.41 4.472-4.714-6.424-1.219-3.158-5.657z" fill-opacity=".66" filter="url(#a)" mask="url(&amp;quot;#b&amp;quot;)" transform="translate(-312 -467)"/></svg>